<?xml version="1.0" encoding="utf-8"?>
<!-- Generator: Adobe Illustrator 18.1.1, SVG Export Plug-In . SVG Version: 6.00 Build 0)  -->
<!DOCTYPE svg PUBLIC "-//W3C//DTD SVG 1.1//EN" "http://www.w3.org/Graphics/SVG/1.1/DTD/svg11.dtd">
<svg version="1.1" id="Layer_1" xmlns="http://www.w3.org/2000/svg" xmlns:xlink="http://www.w3.org/1999/xlink" x="0px" y="0px"
	 viewBox="0 0 58 71.1" enable-background="new 0 0 58 71.1" xml:space="preserve">
<g>
	<path fill="#FFFFFF" d="M20.3,4.6l-0.9-2.8c2-0.7,6.4-1.3,11.5-1.2l-0.1,3C25.8,3.4,21.7,4.1,20.3,4.6z"/>
</g>
<g>
	<path fill="#909096" d="M29.3,66.6c-15.7,0-28.5-12.8-28.5-28.5S13.6,9.6,29.3,9.6s28.5,12.8,28.5,28.5S45,66.6,29.3,66.6z
		 M29.3,10.6c-15.2,0-27.5,12.3-27.5,27.5s12.3,27.5,27.5,27.5s27.5-12.3,27.5-27.5S44.5,10.6,29.3,10.6z"/>
</g>
<g opacity="0.25">
	<path fill-rule="evenodd" clip-rule="evenodd" fill="#FFFFFF" d="M55.8,30.6C51.1,15.1,35.9,7.9,22.4,11.5
		C26,25.7,33.6,54,36.2,64.6C50.1,61.3,60.1,46.5,55.8,30.6z"/>
</g>
<g>
	<path fill="#909096" d="M31.3,70.6h-1l0-1h1V70.6z M31.3,68.6h-1v-3h1V68.6z M31.3,64.6h-1v-3h1V64.6z M31.3,60.6h-1v-3h1V60.6z
		 M31.3,56.6h-1v-3h1V56.6z M31.3,52.6h-1v-3h1V52.6z M31.3,48.6h-1v-3h1V48.6z M31.3,44.6h-1v-3h1V44.6z M31.3,40.6h-1v-3h1V40.6z
		 M31.3,36.6h-1v-3h1V36.6z M31.3,32.6h-1v-3h1V32.6z M31.3,28.6h-1v-3h1V28.6z M31.3,24.6h-1v-3h1V24.6z M31.3,20.6h-1v-3h1V20.6z
		 M31.3,16.6h-1v-3h1V16.6z M31.3,12.6h-1v-3h1V12.6z M31.3,8.6h-1v-3h1V8.6z"/>
</g>
<g>
	
		<rect x="-1.6" y="35.4" transform="matrix(0.2457 0.9693 -0.9693 0.2457 56.3974 -0.6263)" fill="#FFFFFF" width="60.5" height="1"/>
</g>
</svg>
