<?xml version="1.0" encoding="utf-8"?>
<!-- Generator: Adobe Illustrator 18.1.1, SVG Export Plug-In . SVG Version: 6.00 Build 0)  -->
<!DOCTYPE svg PUBLIC "-//W3C//DTD SVG 1.1//EN" "http://www.w3.org/Graphics/SVG/1.1/DTD/svg11.dtd">
<svg version="1.1" id="Layer_1" xmlns="http://www.w3.org/2000/svg" xmlns:xlink="http://www.w3.org/1999/xlink" x="0px" y="0px"
	 viewBox="0 0 57 57" enable-background="new 0 0 57 57" xml:space="preserve">
<g>
	<path fill="#9A9999" d="M28.5,57c-0.7,0-1.4,0-2-0.1l0.1-1c1.3,0.1,2.6,0.1,3.9,0l0.1,1C29.9,57,29.2,57,28.5,57z M31.5,56.8
		l-0.1-1c0.6-0.1,1.3-0.2,1.9-0.3l0.2,1C32.9,56.7,32.2,56.8,31.5,56.8z M25.5,56.8c-0.7-0.1-1.3-0.2-2-0.3l0.2-1
		c0.6,0.1,1.3,0.2,1.9,0.3L25.5,56.8z M22.4,56.4c-0.7-0.1-1.3-0.3-2-0.5l0.3-1c0.6,0.2,1.3,0.3,1.9,0.5L22.4,56.4z M34.6,56.4
		l-0.2-1c0.6-0.1,1.3-0.3,1.9-0.5l0.3,1C35.9,56,35.2,56.2,34.6,56.4z M19.5,55.6c-0.6-0.2-1.3-0.5-1.9-0.7l0.4-0.9
		c0.6,0.3,1.2,0.5,1.8,0.7L19.5,55.6z M37.5,55.5l-0.3-0.9c0.6-0.2,1.2-0.4,1.8-0.7l0.4,0.9C38.8,55.1,38.1,55.3,37.5,55.5z
		 M16.7,54.4c-0.6-0.3-1.2-0.6-1.8-0.9l0.5-0.9c0.6,0.3,1.2,0.6,1.8,0.9L16.7,54.4z M40.3,54.4l-0.4-0.9c0.6-0.3,1.2-0.6,1.8-0.9
		l0.5,0.9C41.6,53.8,41,54.1,40.3,54.4z M14,53c-0.6-0.3-1.2-0.7-1.7-1.1l0.6-0.8c0.5,0.4,1.1,0.7,1.6,1.1L14,53z M43.1,53l-0.5-0.9
		c0.6-0.3,1.1-0.7,1.7-1.1l0.6,0.8C44.2,52.3,43.6,52.7,43.1,53z M11.4,51.3c-0.5-0.4-1.1-0.8-1.6-1.3l0.7-0.8
		c0.5,0.4,1,0.8,1.5,1.2L11.4,51.3z M45.6,51.3L45,50.5c0.5-0.4,1-0.8,1.5-1.2l0.7,0.8C46.7,50.5,46.1,50.9,45.6,51.3z M9.1,49.4
		c-0.5-0.5-1-0.9-1.4-1.4l0.7-0.7c0.4,0.5,0.9,0.9,1.4,1.4L9.1,49.4z M47.9,49.4l-0.7-0.7c0.5-0.4,0.9-0.9,1.4-1.4l0.7,0.7
		C48.9,48.4,48.4,48.9,47.9,49.4z M7,47.2c-0.4-0.5-0.9-1-1.3-1.6L6.5,45c0.4,0.5,0.8,1,1.2,1.5L7,47.2z M50,47.2l-0.8-0.7
		c0.4-0.5,0.8-1,1.2-1.5l0.8,0.6C50.9,46.1,50.5,46.6,50,47.2z M5.1,44.8c-0.4-0.6-0.8-1.1-1.1-1.7l0.9-0.5c0.3,0.6,0.7,1.1,1.1,1.7
		L5.1,44.8z M51.9,44.7l-0.8-0.6c0.4-0.5,0.7-1.1,1.1-1.6L53,43C52.7,43.6,52.3,44.2,51.9,44.7z M3.5,42.2c-0.3-0.6-0.6-1.2-0.9-1.8
		l0.9-0.4c0.3,0.6,0.6,1.2,0.9,1.8L3.5,42.2z M53.5,42.2l-0.9-0.5c0.3-0.6,0.6-1.2,0.9-1.8l0.9,0.4C54.2,41,53.8,41.6,53.5,42.2z
		 M2.2,39.4c-0.3-0.6-0.5-1.3-0.7-1.9l0.9-0.3c0.2,0.6,0.4,1.2,0.7,1.8L2.2,39.4z M54.8,39.4L53.9,39c0.3-0.6,0.5-1.2,0.7-1.8
		l0.9,0.3C55.3,38.1,55.1,38.8,54.8,39.4z M1.1,36.5c-0.2-0.6-0.4-1.3-0.5-2l1-0.2c0.1,0.6,0.3,1.3,0.5,1.9L1.1,36.5z M55.9,36.5
		l-1-0.3c0.2-0.6,0.3-1.3,0.5-1.9l1,0.2C56.2,35.2,56,35.9,55.9,36.5z M0.4,33.6c-0.1-0.7-0.2-1.3-0.3-2l1-0.1
		c0.1,0.6,0.2,1.3,0.3,1.9L0.4,33.6z M56.6,33.6l-1-0.2c0.1-0.6,0.2-1.3,0.3-1.9l1,0.1C56.8,32.2,56.7,32.9,56.6,33.6z M0.1,30.5
		c0-0.7-0.1-1.4-0.1-2h1c0,0.6,0,1.3,0.1,2L0.1,30.5z M56.9,30.5l-1-0.1c0-0.6,0.1-1.3,0.1-2l1,0C57,29.2,57,29.9,56.9,30.5z
		 M1,27.5l-1,0c0-0.7,0.1-1.4,0.1-2l1,0.1C1.1,26.2,1,26.9,1,27.5z M56,27.5c0-0.6-0.1-1.3-0.1-2l1-0.1c0.1,0.7,0.1,1.4,0.1,2
		L56,27.5z M1.3,24.6l-1-0.1c0.1-0.7,0.2-1.3,0.4-2l1,0.2C1.5,23.3,1.4,23.9,1.3,24.6z M55.7,24.6c-0.1-0.6-0.2-1.3-0.3-1.9l1-0.2
		c0.1,0.7,0.3,1.3,0.4,2L55.7,24.6z M1.8,21.7l-1-0.2c0.2-0.7,0.4-1.3,0.6-2l0.9,0.3C2.2,20.4,2,21.1,1.8,21.7z M55.2,21.7
		c-0.2-0.6-0.3-1.3-0.6-1.9l0.9-0.3c0.2,0.6,0.4,1.3,0.6,2L55.2,21.7z M2.7,18.9l-0.9-0.3c0.2-0.6,0.5-1.3,0.8-1.9l0.9,0.4
		C3.2,17.7,3,18.3,2.7,18.9z M54.3,18.9c-0.2-0.6-0.5-1.2-0.8-1.8l0.9-0.4c0.3,0.6,0.5,1.2,0.8,1.9L54.3,18.9z M3.9,16.2L3,15.7
		c0.3-0.6,0.6-1.2,1-1.8l0.9,0.5C4.5,15,4.2,15.6,3.9,16.2z M53.1,16.2c-0.3-0.6-0.6-1.2-0.9-1.7l0.9-0.5c0.3,0.6,0.7,1.2,1,1.8
		L53.1,16.2z M5.4,13.6l-0.8-0.5c0.4-0.6,0.8-1.1,1.2-1.7L6.5,12C6.1,12.6,5.7,13.1,5.4,13.6z M51.6,13.6c-0.4-0.5-0.7-1.1-1.1-1.6
		l0.8-0.6c0.4,0.5,0.8,1.1,1.2,1.7L51.6,13.6z M7.1,11.3l-0.8-0.6c0.4-0.5,0.9-1,1.3-1.5l0.7,0.7C7.9,10.2,7.5,10.7,7.1,11.3z
		 M49.9,11.2c-0.4-0.5-0.8-1-1.3-1.5l0.7-0.7c0.5,0.5,0.9,1,1.3,1.5L49.9,11.2z M9,9.1L8.3,8.4c0.5-0.5,1-0.9,1.5-1.4l0.7,0.8
		C10,8.2,9.5,8.6,9,9.1z M47.9,9c-0.5-0.5-0.9-0.9-1.4-1.3L47.2,7c0.5,0.4,1,0.9,1.5,1.4L47.9,9z M11.2,7.1l-0.6-0.8
		c0.5-0.4,1.1-0.8,1.6-1.2l0.6,0.8C12.3,6.3,11.7,6.7,11.2,7.1z M45.7,7.1c-0.5-0.4-1-0.8-1.6-1.2l0.6-0.8c0.6,0.4,1.1,0.8,1.6,1.2
		L45.7,7.1z M13.6,5.4l-0.5-0.8c0.6-0.4,1.2-0.7,1.8-1l0.5,0.9C14.7,4.7,14.2,5,13.6,5.4z M43.4,5.4c-0.5-0.4-1.1-0.7-1.7-1l0.5-0.9
		c0.6,0.3,1.2,0.7,1.7,1L43.4,5.4z M16.2,3.9L15.7,3c0.6-0.3,1.2-0.6,1.9-0.8L18,3.1C17.4,3.3,16.8,3.6,16.2,3.9z M40.8,3.9
		c-0.6-0.3-1.2-0.6-1.8-0.8l0.4-0.9C40,2.4,40.7,2.7,41.3,3L40.8,3.9z M18.9,2.7l-0.3-0.9c0.6-0.2,1.3-0.5,1.9-0.6l0.3,1
		C20.1,2.3,19.5,2.5,18.9,2.7z M38.1,2.7c-0.6-0.2-1.2-0.4-1.9-0.6l0.3-1c0.7,0.2,1.3,0.4,1.9,0.6L38.1,2.7z M21.7,1.8l-0.2-1
		c0.7-0.2,1.3-0.3,2-0.4l0.2,1C23,1.5,22.3,1.7,21.7,1.8z M35.3,1.8c-0.6-0.2-1.3-0.3-1.9-0.4l0.2-1c0.7,0.1,1.3,0.3,2,0.4L35.3,1.8
		z M24.6,1.3l-0.1-1c0.7-0.1,1.3-0.2,2-0.2l0.1,1C25.9,1.1,25.2,1.2,24.6,1.3z M32.4,1.3c-0.6-0.1-1.3-0.2-2-0.2l0.1-1
		c0.7,0,1.4,0.1,2,0.2L32.4,1.3z M27.5,1l0-1c0.7,0,1.4,0,2,0l0,1C28.8,1,28.2,1,27.5,1z"/>
</g>
</svg>
