<?xml version="1.0" encoding="utf-8"?>
<!-- Generator: Adobe Illustrator 18.1.1, SVG Export Plug-In . SVG Version: 6.00 Build 0)  -->
<!DOCTYPE svg PUBLIC "-//W3C//DTD SVG 1.1//EN" "http://www.w3.org/Graphics/SVG/1.1/DTD/svg11.dtd">
<svg version="1.1" id="Layer_1" xmlns="http://www.w3.org/2000/svg" xmlns:xlink="http://www.w3.org/1999/xlink" x="0px" y="0px"
	 viewBox="0 0 57 57" enable-background="new 0 0 57 57" xml:space="preserve">
<g>
	<path fill="#9A9999" d="M28.5,57C12.8,57,0,44.2,0,28.5S12.8,0,28.5,0S57,12.8,57,28.5S44.2,57,28.5,57z M28.5,1
		C13.3,1,1,13.3,1,28.5S13.3,56,28.5,56S56,43.7,56,28.5S43.7,1,28.5,1z"/>
</g>
<g>
	<path fill="#9A9999" d="M28.5,57c-0.2,0-0.3,0-0.4,0l0-1c0.8,0,1.6,0,2.3-0.1l0.2,1C29.9,56.9,29.2,57,28.5,57z M27,56.9
		c-0.7-0.1-1.4-0.2-2-0.4l0.3-1c0.6,0.2,1.2,0.3,1.9,0.4L27,56.9z M31.6,56.6l-0.2-1c0.6-0.2,1.2-0.4,1.8-0.6l0.4,0.9
		C32.9,56.2,32.3,56.4,31.6,56.6z M24,56.2c-0.6-0.2-1.3-0.6-1.9-0.9l0.5-0.9c0.5,0.3,1.1,0.6,1.7,0.8L24,56.2z M34.5,55.5L34,54.6
		c0.6-0.3,1.1-0.7,1.6-1.1l0.6,0.8C35.7,54.8,35.1,55.1,34.5,55.5z M21.2,54.7c-0.6-0.4-1.1-0.9-1.6-1.3l0.7-0.7
		c0.4,0.4,0.9,0.9,1.5,1.2L21.2,54.7z M37,53.6l-0.7-0.7c0.5-0.4,0.9-0.9,1.3-1.4l0.8,0.6C38,52.7,37.5,53.2,37,53.6z M19,52.6
		c-0.4-0.5-0.9-1.1-1.2-1.7l0.9-0.5c0.3,0.5,0.7,1.1,1.1,1.6L19,52.6z M39,51.3l-0.8-0.5c0.3-0.5,0.6-1.1,0.9-1.7l0.9,0.4
		C39.7,50.1,39.4,50.7,39,51.3z M17.3,50c-0.3-0.6-0.6-1.3-0.8-1.9l1-0.3c0.2,0.6,0.4,1.2,0.7,1.8L17.3,50z M40.4,48.4l-0.9-0.3
		c0.2-0.6,0.4-1.2,0.4-1.9l1,0.2C40.7,47.1,40.6,47.8,40.4,48.4z M16.3,47c-0.1-0.7-0.2-1.4-0.2-2.1l1,0c0,0.6,0.1,1.3,0.2,1.9
		L16.3,47z M41,45.4l-1-0.1c0-0.3,0-0.5,0-0.8c0-0.4,0-0.7-0.1-1.1l1-0.1c0,0.4,0.1,0.8,0.1,1.2C41,44.8,41,45.1,41,45.4z M17,44
		l-1,0c0-0.7,0.1-1.4,0.3-2.1l1,0.2C17.1,42.7,17,43.3,17,44z M39.8,42.5c-0.1-0.6-0.3-1.2-0.5-1.8l0.9-0.3c0.2,0.7,0.4,1.3,0.5,2
		L39.8,42.5z M17.5,41.1l-1-0.3c0.2-0.7,0.5-1.3,0.8-1.9l0.9,0.4C17.9,39.9,17.7,40.5,17.5,41.1z M39,39.7c-0.3-0.6-0.6-1.1-0.9-1.7
		l0.8-0.6c0.4,0.6,0.7,1.2,1,1.8L39,39.7z M18.7,38.5L17.8,38c0.4-0.6,0.8-1.2,1.2-1.7l0.8,0.7C19.4,37.5,19,38,18.7,38.5z
		 M37.5,37.3c-0.4-0.5-0.8-1-1.3-1.4l0.7-0.7c0.5,0.5,1,1,1.4,1.5L37.5,37.3z M20.5,36.3l-0.7-0.7c0.5-0.5,1-0.9,1.6-1.3l0.6,0.8
		C21.4,35.4,20.9,35.8,20.5,36.3z M35.4,35.3c-0.5-0.4-1.1-0.7-1.6-1l0.5-0.9c0.6,0.3,1.2,0.7,1.8,1.1L35.4,35.3z M22.7,34.5
		l-0.5-0.9c0.6-0.3,1.2-0.6,1.9-0.9l0.3,0.9C23.9,33.9,23.3,34.2,22.7,34.5z M32.9,33.9c-0.6-0.2-1.2-0.4-1.8-0.6l0.2-1
		c0.7,0.2,1.3,0.4,2,0.6L32.9,33.9z M25.4,33.4l-0.3-1c0.7-0.2,1.4-0.3,2-0.4l0.1,1C26.6,33.1,26,33.3,25.4,33.4z M30.1,33.1
		C29.6,33,29,33,28.5,33l-0.3,0l0-1l0.3,0c0.6,0,1.2,0,1.8,0.1L30.1,33.1z"/>
</g>
</svg>
