<?xml version="1.0" encoding="utf-8"?>
<!-- Generator: Adobe Illustrator 18.1.1, SVG Export Plug-In . SVG Version: 6.00 Build 0)  -->
<!DOCTYPE svg PUBLIC "-//W3C//DTD SVG 1.1//EN" "http://www.w3.org/Graphics/SVG/1.1/DTD/svg11.dtd">
<svg version="1.1" id="Layer_1" xmlns="http://www.w3.org/2000/svg" xmlns:xlink="http://www.w3.org/1999/xlink" x="0px" y="0px"
	 viewBox="0 0 143.6 50.8" enable-background="new 0 0 143.6 50.8" xml:space="preserve">
<g>
	<path fill="#9A9999" d="M124.6,37.7L105.9,19l18.7-18.7L143.3,19L124.6,37.7z M107.3,19l17.3,17.3L141.9,19L124.6,1.7L107.3,19z"/>
	<path fill="#9A9999" d="M71.6,37.6l-16.1-9.3V9.7l16.1-9.3l16.1,9.3v18.6L71.6,37.6z M56.5,27.7l15.1,8.7l15.1-8.7V10.3L71.6,1.6
		l-15.1,8.7V27.7z"/>
	<path fill="#9A9999" d="M18.6,37.5C8.4,37.5,0.1,29.2,0.1,19S8.4,0.5,18.6,0.5S37.1,8.8,37.1,19S28.8,37.5,18.6,37.5z M18.6,1.5
		C9,1.5,1.1,9.4,1.1,19S9,36.5,18.6,36.5S36.1,28.7,36.1,19S28.3,1.5,18.6,1.5z"/>
	<g>
		<rect x="18.6" y="47" fill="#9A9999" width="107" height="1"/>
	</g>
	<rect x="125.1" y="44.5" fill="#9A9999" width="1" height="6"/>
	<rect x="18.1" y="44.5" fill="#9A9999" width="1" height="6"/>
</g>
</svg>
